<?xml version="1.0" encoding="UTF-8" standalone="no"?>
<!-- Created with Inkscape (http://www.inkscape.org/) -->

<svg
   width="495mm"
   height="194.8mm"
   viewBox="0 0 495 194.8"
   version="1.1"
   id="svg5"
   inkscape:version="1.1.1 (3bf5ae0d25, 2021-09-20)"
   sodipodi:docname="heifer.svg"
   inkscape:export-filename="C:\Users\admin\Pictures\Logo\heifer.png"
   inkscape:export-xdpi="72.571426"
   inkscape:export-ydpi="72.571426"
   xmlns:inkscape="http://www.inkscape.org/namespaces/inkscape"
   xmlns:sodipodi="http://sodipodi.sourceforge.net/DTD/sodipodi-0.dtd"
   xmlns="http://www.w3.org/2000/svg"
   xmlns:svg="http://www.w3.org/2000/svg"
   xmlns:rdf="http://www.w3.org/1999/02/22-rdf-syntax-ns#"
   xmlns:cc="http://creativecommons.org/ns#"
   xmlns:dc="http://purl.org/dc/elements/1.1/">
  <title
     id="title52789">HeifER</title>
  <sodipodi:namedview
     id="namedview7"
     pagecolor="#ffffff"
     bordercolor="#666666"
     borderopacity="1.0"
     inkscape:pageshadow="2"
     inkscape:pageopacity="0.0"
     inkscape:pagecheckerboard="0"
     inkscape:document-units="mm"
     showgrid="false"
     inkscape:zoom="0.22627417"
     inkscape:cx="1005.4175"
     inkscape:cy="331.4563"
     inkscape:window-width="1920"
     inkscape:window-height="1002"
     inkscape:window-x="-8"
     inkscape:window-y="-8"
     inkscape:window-maximized="1"
     inkscape:current-layer="layer1" />
  <defs
     id="defs2" />
  <g
     inkscape:label="Layer 1"
     inkscape:groupmode="layer"
     id="layer1">
    <path
       style="fill:#a05a2c;stroke:none;stroke-width:0.264583px;stroke-linecap:butt;stroke-linejoin:miter;stroke-opacity:1"
       d="m 103.19982,181.69698 c 0.44224,0.76668 1.01295,8.88769 0.72263,9.03285 -0.21544,0.10772 -0.50718,-0.10772 -0.72263,0 -0.13919,0.0696 0,1.64479 0,1.80657 0,0.41768 -0.26066,1.90721 0,2.16788 0.12731,0.12731 1.75446,0.0521 1.80657,0 0.3222,-0.3222 1.70531,-1.86409 1.80657,-2.16788 0.28825,-0.86474 0.0611,-3.88553 0.36132,-4.33577 0.18895,-0.28344 0.53366,-0.43919 0.72262,-0.72263 0.37079,-0.55617 0.43508,-2.60296 1.08395,-3.25182 0.19043,-0.19043 0.53219,-0.17088 0.72262,-0.36132 0.35114,-0.35113 0.13924,-1.0011 0.36132,-1.44525 0.22102,-0.44205 0.73188,-0.45858 1.08394,-0.72263 0.34739,-0.26055 0.77688,-0.41557 1.08394,-0.72263 0.0852,-0.0852 -0.10772,-0.30745 0,-0.36131 0.21545,-0.10772 0.50718,0.10772 0.72263,0 0.10772,-0.0539 -0.0539,-0.25359 0,-0.36131 0.30468,-0.60938 0.91325,-1.01965 1.44525,-1.44526 0.77532,-0.62025 1.93428,-1.2755 2.5292,-2.16788 0.14939,-0.22408 0.13724,-0.57325 0.36131,-0.72263 0.20042,-0.13361 0.52221,0.13362 0.72263,0 0.22408,-0.14939 0.14587,-0.56104 0.36131,-0.72263 0.30469,-0.22851 0.81464,-0.092 1.08395,-0.36131 0.57128,-0.57129 0.51265,-1.5966 1.08394,-2.16788 0.54197,-0.54198 1.62591,-0.54198 2.16788,-1.08395 0.66514,-0.66514 1.24218,-1.41536 1.80657,-2.16788 2.04623,-2.7283 2.506,-5.35013 3.61314,-8.67153 0.1942,-0.5826 0.0867,-1.25729 0.36131,-1.80657 0.0539,-0.10772 0.32323,0.11426 0.36132,0 0.15234,-0.45703 -0.17892,-0.99796 0,-1.44526 0.57967,-1.44917 1.57913,-2.14125 2.16788,-3.61314 0.22808,-0.57019 0.1926,-1.21608 0.36131,-1.80656 0.35148,-1.23018 0.62313,-0.43635 1.44526,-1.80657 0.12393,-0.20655 0,-0.48176 0,-0.72263 0.24088,-0.48175 0.42386,-0.9971 0.72263,-1.44526 1.41275,-2.11913 2.32261,-3.3549 3.97445,-5.41971 0.0752,-0.094 -0.0852,-0.27615 0,-0.36131 0.0852,-0.0852 0.27615,0.0852 0.36131,0 0.78903,-0.78903 0.0751,-0.58663 0.36132,-1.44526 0.26108,-0.78325 1.42606,-1.40686 1.80657,-2.16788 0.17032,-0.34065 0.15005,-0.76705 0.36131,-1.08394 0.0762,-0.11434 6.04395,-4.28657 6.14234,-4.33577 4.13621,-2.0681 0.45607,0.44899 3.61314,-1.44525 1.23838,-0.74303 0.80538,-1.67537 2.52919,-2.16788 1.15154,-0.32902 1.07138,0.46106 2.16789,-0.36132 0.21544,-0.16158 0.15102,-0.55439 0.36131,-0.72263 3.10054,-1.55027 0.12509,0.23623 2.16788,-1.80657 0.73917,-0.73917 1.67905,-0.87848 2.5292,-1.44525 1.37093,-0.91395 3.3551,-2.96283 4.33577,-4.33577 0.5048,-0.70672 0.87335,-1.51428 1.44525,-2.16788 0.28595,-0.3268 0.72263,-0.48175 1.08394,-0.72263 0.48175,-0.48175 1.03648,-0.90021 1.44526,-1.44525 1.13027,-1.50703 0.17183,-1.43938 1.80657,-2.5292 2.33458,-1.55639 6.40523,-1.84025 6.86496,-5.05839 0.2684,-1.87882 -0.3715,-3.9235 0,-5.78103 0.14939,-0.74692 0.55739,-1.4243 0.72263,-2.16788 0.67078,-3.018511 -0.33366,-9.72782 -2.5292,-11.92336 -0.26931,-0.2693 -0.81463,-0.092 -1.08394,-0.36131 -0.38086,-0.38086 -0.34177,-1.0644 -0.72263,-1.44526 -0.64858,-0.64857 -1.82456,-0.49674 -2.52919,-1.08394 -0.3336,-0.278 -0.41557,-0.77688 -0.72263,-1.08394 -1.15564,-1.15564 -3.53308,-2.2368 -5.0584,-2.89051 -0.89249,-0.3825 -1.99802,0.0212 -2.89051,-0.36131 -0.46966,-0.20129 -0.62691,-0.85543 -1.08394,-1.08395 -0.54928,-0.27464 -1.2475,-0.10719 -1.80657,-0.36131 -2.45322,-1.1151 -4.49095,-2.78745 -6.86496,-3.97445 -0.91634,-0.45817 -3.95098,-1.06047 -4.33577,-1.44526 -0.44846,-0.44846 -0.45482,-0.81613 -0.72263,-1.08394 -0.65344,-0.65344 -1.52777,-1.16646 -2.16788,-1.80657 -0.0852,-0.0852 0.25359,0.0539 0.36131,0 1.23315,-0.61657 2.55023,-1.45051 3.97446,-1.80657 0.23368,-0.0584 0.6149,0.21545 0.72263,0 0.48175,-0.9635 -0.89103,-1.96679 -1.44526,-2.89051 -0.61028,-1.01714 -0.78728,-2.26486 -1.44526,-3.251823 -0.14938,-0.224079 -0.60219,-0.120439 -0.72262,-0.361315 -0.48175,-0.963502 0.16058,-0.802918 0,-1.445255 -0.75185,-3.007402 0.0249,0.436144 -0.72263,-1.80657 -0.48621,-1.458616 0,-4.190365 0,-5.781021 0,-0.240877 -0.17033,-0.552302 0,-0.722628 0.49573,-0.495731 0.36748,-0.02469 0.72263,-1.445254 0.24616,-0.984639 -0.56688,-7.895939 -1.08395,-8.671534 -0.43879,-0.658201 -0.77034,-0.818068 -1.08394,-1.445254 -0.17032,-0.340651 -0.092,-0.814637 -0.36131,-1.083943 -0.33496,-0.33496 -1.65809,-0.786979 -1.80657,-1.083942 -0.10772,-0.215445 0.17033,-0.552302 0,-0.722627 -0.17033,-0.170326 -0.50718,0.107722 -0.72263,0 -0.10772,-0.05386 0.0852,-0.276151 0,-0.361315 -0.009,-0.0088 -2.05861,-0.525217 -2.16788,-0.361313 -0.21126,0.316894 -0.1328,0.779254 -0.36131,1.083943 -0.16159,0.215444 -0.56105,0.145867 -0.72263,0.361312 -0.62142,0.828553 -0.56273,3.491682 0,4.335767 0.24087,0.361315 0.77688,0.41557 1.08394,0.722627 0.3388,0.338796 2.0457,2.646148 2.16788,2.890512 0.57924,1.158475 0.51851,3.927528 0.72263,4.335767 0.185,0.36999 1.28944,0.672954 0.72263,1.806569 -0.10773,0.215445 -0.48175,0 -0.72263,0 -0.67705,0 -1.84863,0.882256 -2.89051,0.361313 -0.3884,-0.194199 -0.72263,-0.481751 -1.08394,-0.722628 -1.15337,-0.768908 -0.47122,-2.694058 -1.08394,-3.613139 -0.18896,-0.283437 -0.57029,-0.417941 -0.72263,-0.722627 -0.43358,-0.867154 0.43358,-2.384671 0,-3.251825 -0.0539,-0.107722 -0.30745,0.107723 -0.36132,0 -0.10772,-0.215445 0.10773,-0.507182 0,-0.722627 -0.13887,-0.277752 -0.88365,-0.161028 -1.08394,-0.361315 -0.26931,-0.269306 -0.1328,-0.779253 -0.36131,-1.083942 -0.76714,-1.02285 -4.09268,-2.108767 -5.41971,-1.445255 -0.70321,0.351607 -1.07653,1.563224 -1.80657,1.80657 -0.22851,0.07617 -0.52221,-0.133615 -0.72262,0 -0.15754,0.105021 -1.99492,3.267194 -2.16789,3.613139 -0.16394,0.327874 -0.15594,1.703885 -0.36131,1.80657 -0.21545,0.107722 -0.57811,-0.192702 -0.72263,0 -0.38598,0.514638 -0.56088,2.604838 -0.72263,3.251824 -0.33469,1.338776 -1.91213,2.334406 -2.16788,3.613139 -0.20845,1.04225 0.20845,2.209573 0,3.251825 -0.32625,1.631227 -1.20532,3.017544 -1.44526,4.697075 -0.0505,0.35321 0.15881,2.21159 0,2.5292 -0.12043,0.24088 -0.53219,0.17088 -0.72263,0.36132 -0.34064,0.34064 0.11685,0.97788 0,1.44525 -0.0413,0.16524 -0.32,0.19608 -0.36131,0.36132 -0.30083,1.20334 -0.25545,2.36732 -0.72263,3.61313 -0.51537,1.37434 -1.24542,1.65315 -1.44525,3.25183 -0.18521,1.48164 0.47076,3.64611 0,5.05839 -0.17033,0.51098 -0.57466,0.92737 -0.72263,1.44526 -0.34178,1.19622 -0.31501,4.15968 0,5.4197 0.59897,2.3959 2.30632,3.72458 4.69708,2.5292 0.30469,-0.15234 0.41794,-0.57028 0.72263,-0.72263 0.32317,-0.16158 0.92235,0.32317 1.08394,0 0.10772,-0.21544 -0.0762,-0.49411 0,-0.72262 0.19043,-0.57129 1.08394,-0.60219 1.44526,-1.08395 0.14452,-0.19269 -0.10773,-0.50718 0,-0.72262 0.0871,-0.17419 1.40026,0.34632 1.44525,0.36131 0.91809,0.30603 -0.0459,1.39933 0.36132,1.80657 0.0852,0.0852 0.30745,-0.10772 0.36131,0 0.10772,0.21545 -0.0762,0.49411 0,0.72263 0.12756,0.38269 0.93268,1.60489 1.08394,1.80657 0.56994,0.75992 1.74142,1.31495 2.16788,2.16788 0.44495,0.8899 -1.0488,-0.32617 0.36132,1.08394 1.84645,1.846449 -0.50394,-1.51498 1.44525,1.08394 0.22852,0.304689 0.0207,0.913619 0.36132,1.083949 0.36186,0.18093 0.92964,0.0527 1.08394,0.36131 0.18093,0.36187 0.0527,0.92964 0.36131,1.08394 0.63638,0.31819 0.6947,-0.0279 1.08394,0.36131 0.3292,0.329201 0.41379,6.349231 0.72263,6.503651 2.04745,0 0.12044,-0.24087 0.72263,0.36132 0.17032,0.17032 0.48175,0 0.72263,0 0.24087,0 0.58901,0.20042 0.72262,0 0.20043,-0.30063 -0.0876,-0.73342 0,-1.08394 0.0413,-0.16524 0.24088,-0.24088 0.36132,-0.36132 0.12044,-0.48175 0.29972,-0.95251 0.36131,-1.44525 0.13496,-1.07971 -0.52379,-4.010811 0,-5.058401 0.0762,-0.15234 0.24088,-0.24087 0.36132,-0.36131 0,-0.36131 -0.16159,-0.76077 0,-1.08394 0.12043,-0.240879 0.60218,-0.12044 0.72262,-0.361319 0.63403,-1.26805 -0.31157,-3.97445 2.16789,-3.97445 0.36131,0 0.76077,-0.16158 1.08394,0 0.11323,0.0566 0,2.7873 0,2.89051 0,2.524389 0.23628,5.19721 -0.36131,7.58759 -0.19292,0.77166 0.11183,1.74635 0,2.5292 -0.0937,0.65564 -1.42064,4.18251 -1.80657,4.69708 -0.2044,0.27252 -0.59612,0.40634 -0.72263,0.72263 -0.36885,0.92212 -0.36611,1.96355 -0.72263,2.89051 -0.54155,1.40804 -2.38532,4.98727 -3.25182,6.50365 -2.07481,3.6309 -0.21324,-0.0628 -1.80657,2.16788 -1.28143,1.794 -2.08983,3.92183 -3.25183,5.78102 -0.31916,0.51066 -0.81463,0.90664 -1.08394,1.44526 -0.34065,0.6813 -0.40743,1.47444 -0.72263,2.16788 -0.76263,1.67779 -2.07425,3.06456 -2.89051,4.69708 -0.22207,0.44416 -0.12015,1.01117 -0.36131,1.44526 -2.00217,3.6039 -1.04568,-0.10522 -2.5292,3.97445 -0.20987,0.57714 -0.15144,1.22943 -0.36131,1.80657 -0.33184,0.91254 -1.1382,1.60803 -1.44526,2.5292 -0.1942,0.5826 -0.0867,1.25729 -0.36131,1.80657 -0.60724,1.21447 -1.7758,2.48304 -2.5292,3.61314 -2.13437,3.20155 0.50482,-0.28702 -1.08394,2.89051 -0.69953,1.39905 -2.21315,2.61973 -2.89051,3.97445 -0.22208,0.44415 -0.13924,1.0011 -0.36132,1.44525 -0.59942,1.19886 -1.83923,2.46321 -2.52919,3.61314 -0.53273,0.88788 -0.25019,1.58432 -0.72263,2.5292 -0.63239,1.26478 -1.89681,2.34836 -2.5292,3.61314 -0.22207,0.44415 -0.17689,0.98419 -0.36131,1.44525 -0.22365,0.55912 -0.8603,0.88614 -1.08394,1.44526 -0.464,1.16 -0.77526,2.73969 -1.08394,3.97445 -0.12503,0.50011 0.19107,1.32888 0,1.80657 -0.71374,1.78434 -0.57544,0.85651 -1.08395,2.89051 z"
       id="path869"
       inkscape:export-filename="C:\Users\admin\Pictures\Logo\heifer.png"
       inkscape:export-xdpi="72.571426"
       inkscape:export-ydpi="72.571426" />
    <path
       style="fill:#a05a2c;stroke:none;stroke-width:0.264583px;stroke-linecap:butt;stroke-linejoin:miter;stroke-opacity:1"
       d="m 108.61953,128.94516 c 1.65379,0.83167 5.09145,1.41219 6.50365,0 0.26931,-0.26931 0.0207,-0.91362 0.36131,-1.08394 0.21545,-0.10773 0.55231,0.17032 0.72263,0 0.17033,-0.17033 -0.10772,-0.50719 0,-0.72263 0.0821,-0.1643 1.76561,0.34766 1.80657,0.36131 0.69783,0.23261 0.12628,0.61388 0.36131,1.08394 0.0539,0.10773 0.27616,-0.0852 0.36132,0 0.55803,0.55803 -0.46449,2.86463 -0.72263,3.25183 -0.0668,0.10021 -0.24087,0 -0.36131,0 -0.12044,0.12044 -0.28514,0.20897 -0.36132,0.36131 -0.0539,0.10773 0.10773,0.30746 0,0.36132 -0.21544,0.10772 -0.48894,-0.0584 -0.72262,0 -0.75207,0.18801 -1.05451,0.89592 -1.80657,1.08394 -1.56849,0.39212 -3.45231,-0.22944 -5.0584,0 -2.06128,0.29447 -4.11036,0.31623 -6.14233,0.72263 -1.07612,0.21522 -0.15424,-0.13806 -1.44525,0.72262 -0.94361,0.62908 -3.939843,0.92415 -5.058403,1.08395 -2.114664,0.30209 -5.280964,-0.77813 -7.226284,0 -0.40318,0.16127 -0.68075,0.56135 -1.08394,0.72262 -0.86362,0.34545 -7.39308,0.25569 -8.67153,0 -0.16702,-0.0334 -0.20317,-0.29805 -0.36131,-0.36131 -0.57019,-0.22808 -1.27997,-0.0453 -1.80657,-0.36131 -1.38955,-0.83374 -2.62425,-1.62907 -3.97445,-2.5292 -0.53965,-0.35977 -1.34795,-0.26402 -1.80657,-0.72263 -0.17033,-0.17032 0.10772,-0.50718 0,-0.72263 -0.0303,-0.0606 -1.80561,-1.08298 -1.80657,-1.08394 -0.26931,-0.26931 -0.0444,-0.87268 -0.36131,-1.08394 -0.3169,-0.21126 -0.77926,-0.1328 -1.08394,-0.36131 -1.1281,-0.84607 -0.0425,-0.4463 -0.36132,-1.08395 -0.55502,-1.11003 -0.20379,0.5976 -1.08394,-0.72262 -0.13361,-0.20042 0.10772,-0.50719 0,-0.72263 -0.0539,-0.10773 -0.27615,0.0852 -0.36131,0 -0.17033,-0.17033 0,-0.48175 0,-0.72263 0,-0.36131 -0.25549,-0.82845 0,-1.08394 0.24049,-0.2405 3.81896,-0.43906 3.97445,-0.36131 0.3421,0.17105 3.50694,1.19014 3.61314,1.08394 0.35105,-0.35105 -0.18511,-6.4111 0,-6.50365 0.32317,-0.16159 0.92236,0.32317 1.08394,0 0.10772,-0.21545 -0.10772,-0.50718 0,-0.72263 0.10832,-0.21664 1.25141,0.19384 1.44525,0 0.35158,-0.35158 1.04786,-1.42721 1.80657,-1.80657 0.66011,-0.33005 3.00343,-1.4227 3.25182,-2.16788 0.28621,-0.85863 -0.42771,-0.65623 0.36132,-1.44526 0.0852,-0.0852 0.27615,0.0852 0.36131,0 0.71836,-0.71835 0.72263,-2.2319 0.72263,-3.25182 0,-0.26314 0.21876,-1.94912 0,-2.16789 -0.17032,-0.17032 -0.48175,0 -0.72263,0 -2.40071,0 -3.4643,1.40266 -4.69707,3.25183 -0.14939,0.22408 -0.14587,0.56104 -0.36132,0.72263 -1.17426,0.8807 -2.7042,0.46857 -3.97445,0.72263 -0.0331,0.007 -0.80987,0.54402 -1.08394,0.36131 -0.42516,-0.28344 -0.62691,-0.85543 -1.08394,-1.08394 -0.10773,-0.0539 -0.30746,0.10772 -0.36132,0 -0.26827,-0.53654 -0.36278,-3.43029 0,-3.97446 0.18896,-0.28343 0.53367,-0.43919 0.72263,-0.72262 0.26723,-0.40085 -0.15234,-0.98823 0,-1.44526 0.0381,-0.11426 0.30745,0.10772 0.36131,0 0.26154,-0.52307 0.0814,-1.60797 0.36132,-2.16788 0.7093,-1.41861 1.83728,-1.83729 2.89051,-2.89051 0.34082,-0.34083 1.46935,-1.935041 2.16788,-2.167891 0.22852,-0.0762 0.52993,0.14453 0.72263,0 0.34739,-0.26054 0.41556,-0.77688 0.72262,-1.08394 2.11201,-2.111999 4.73475,-2.529189 7.5876,-2.529189 0.72262,0 1.49693,-0.26838 2.16788,0 0.40319,0.16127 0.6848,0.55156 1.08394,0.72262 1.11264,0.47685 2.55605,0.19409 3.61314,0.72263 1.12625,0.56313 2.02469,0.879419 3.251824,1.083939 2.84724,0.47454 6.079683,-0.0157 9.032843,0.72263 0.36132,0.0903 0.72263,-0.18066 1.08395,0 0.5716,0.2858 5.8703,3.791701 6.14233,4.335771 0.17033,0.34065 0.12339,0.78654 0.36132,1.08394 0.33647,0.42059 1.14648,0.27447 1.44525,0.72263 0.55798,0.83697 0.61053,12.12255 0.36131,13.36861 -0.11297,0.56486 -2.77858,4.02027 -3.25182,4.33577 -0.20042,0.13361 -0.52221,-0.13362 -0.72263,0 -0.44815,0.29876 -0.42386,0.9971 -0.72263,1.44525 -0.58623,0.87935 -0.42901,-0.27105 -1.44525,1.08394 -0.14453,0.1927 0.10772,0.50718 0,0.72263 -0.083,0.16594 -1.26776,0.19014 -1.44526,0.72263 -0.0358,0.10727 -1.19925,3.25182 -0.72262,3.25182 0.49658,0 0.9635,-0.24087 1.44525,-0.36131 z"
       id="path873"
       inkscape:export-filename="C:\Users\admin\Pictures\Logo\heifer.png"
       inkscape:export-xdpi="72.571426"
       inkscape:export-ydpi="72.571426" />
    <path
       style="fill:#a05a2c;stroke:none;stroke-width:0.264583px;stroke-linecap:butt;stroke-linejoin:miter;stroke-opacity:1"
       d="m 124.15603,16.93786 c -0.63065,0.09335 0.44772,2.305333 0,2.529197 -0.21545,0.107723 -0.49412,-0.07617 -0.72263,0 -0.41504,0.138346 -0.5013,0.862611 -0.72263,1.083943 -0.55426,0.554262 -1.19515,0.233489 -1.80657,0.722627 -0.399,0.319204 -0.67516,0.777356 -1.08394,1.083942 -0.7906,0.59295 -2.07606,0.269489 -2.89051,1.08394 -1.41011,1.410113 0.0836,0.194043 -0.36131,1.083942 -0.35555,0.711097 -0.94464,0.944637 -1.44526,1.445255 -0.27736,0.27736 -0.20741,1.137446 -0.36131,1.445257 -0.48176,0.963502 -0.36132,-1.083942 -0.36132,0.361313 0,0.232571 0.1329,1.378807 0,1.445254 -0.21544,0.107726 -0.50718,-0.107722 -0.72262,0 -0.21545,0.107726 0.0762,0.494115 0,0.72263 -0.21037,0.631106 -0.90744,0.915729 -1.08395,1.445255 -0.0762,0.228515 0.13362,0.522206 0,0.722627 -0.2679,0.40185 -1.24604,0.486318 -1.44525,1.083943 -0.0762,0.228515 0.17032,0.552302 0,0.722627 -0.17033,0.170326 -0.49411,-0.07617 -0.72263,0 -0.30569,0.101896 -0.77377,0.660593 -1.08394,0.722628 -2.42162,0.484322 -5.4942,0 -7.9489,0 -0.3055,0 -1.25726,0.187999 -1.445263,0 -0.0852,-0.08516 0.114263,-0.323229 0,-0.361315 -0.34277,-0.114256 -0.74117,0.114257 -1.08394,0 -1.44525,-0.481751 1.565703,-0.361313 -0.36131,-0.361313 -1.26013,0 -8.400644,1.625378 -8.671544,0 -0.42475,-2.548538 0.10981,-6.037236 1.08395,-8.310218 0.31825,-0.742598 0.88799,-1.384083 1.08394,-2.167885 0.20655,-0.826196 0.17657,-1.69785 0.36131,-2.529197 0.36132,-1.625936 1.61853,-2.009389 1.08394,-3.613137 -0.0625,-0.187494 -1.69915,0 -2.16788,0 -1.61073,0 -6.9015,0.424238 -7.9489,-0.361315 -0.71515,-0.536363 -2.97565,-2.061977 -3.25183,-2.890512 -0.31386,-0.941588 -0.30361,-4.0813349 0.72263,-4.6970789 2.52715,-1.516292 13.27454,-0.722627 16.620444,-0.722627 4.865083,0 13.483453,-1.026517 17.704373,1.083942 0.10772,0.05386 0.24088,0 0.36131,0 0.36132,0.120436 0.77926,0.132797 1.08395,0.3613129 0.80988,0.607414 1.20471,1.887087 2.16788,2.529197 0.31689,0.211261 0.74329,0.190989 1.08394,0.361315 0.57843,0.28921 0.47244,1.241419 1.08394,1.445254 0.67088,0.223626 0.71355,-0.0091 1.08394,0.361315 0.13448,0.134469 0.23615,1.38267 0.36132,1.445255 0.21544,0.107722 0.50718,-0.107723 0.72263,0 1.08394,0.54197 -2.16789,0.361312 0,1.083942 0.36131,0.120436 0.72262,-0.240876 1.08394,-0.361315 z"
       id="path875"
       inkscape:export-filename="C:\Users\admin\Pictures\Logo\heifer.png"
       inkscape:export-xdpi="72.571426"
       inkscape:export-ydpi="72.571426" />
    <path
       style="fill:#ffffff;stroke:#000000;stroke-width:0.5;stroke-linecap:butt;stroke-linejoin:miter;stroke-miterlimit:4;stroke-dasharray:none;stroke-opacity:1"
       d="m 139.33121,33.558297 c -1.09413,-1.117822 -2.22475,-1.729581 -2.5292,-3.251824 -0.0472,-0.236199 0.13362,-0.522206 0,-0.722628 -0.14938,-0.224078 -0.5322,-0.170883 -0.72263,-0.361315 -0.76204,-0.762042 -0.72262,-4.888079 -0.72262,-6.142333 0,-0.263142 -0.21877,-1.94912 0,-2.167885 0.17032,-0.170325 0.6149,0.215448 0.72262,0 0.10773,-0.215445 -0.0762,-0.494112 0,-0.722627 0.31369,-0.941062 0.58941,-0.228092 1.08395,-0.722628 0.17032,-0.170325 -0.10773,-0.507182 0,-0.722627 0.0539,-0.107722 0.25359,0.05386 0.36131,0 1.51374,-0.75687 3.07378,-0.542843 4.69708,-1.083942 0.51735,-0.17245 1.32391,0.241331 1.80657,0 2.39665,-2.396654 -0.6813,0.340651 1.44525,-0.722628 0.10773,-0.05386 -0.0852,-0.276151 0,-0.361315 0.23309,-0.233079 1.54264,-0.185359 1.80657,-0.361312 0.1823,-0.121534 0.64199,-1.043623 0.72263,-1.083942 0.3854,-0.192702 1.05986,0.192701 1.44526,0 1.43669,-0.718347 1.42991,-0.471525 2.89051,-1.445255 0.5318,-0.354536 1.64159,0.164973 2.16788,-0.361315 0.27029,-0.27029 0.82364,-1.134446 1.44526,-1.445255 0.8899,-0.44495 -0.32617,1.048798 1.08394,-0.361315 0.0852,-0.08516 0,-0.240874 0,-0.361312 0.12044,-0.240877 0.17088,-0.532199 0.36131,-0.722627 0.34334,-0.343337 1.58377,-0.415537 1.80657,-1.0839429 0.0762,-0.228515 -0.0762,-0.494112 0,-0.722627 0.13835,-0.415036 0.86261,-0.501296 1.08394,-0.722627 0.50399,-0.503989 0.24617,-1.5273129 1.08394,-1.8065699 0.22852,-0.07617 0.55231,0.170325 0.72263,0 0.17033,-0.170326 -0.0762,-0.494112 0,-0.722628 0.10773,-0.32317 0.61491,-0.399459 0.72263,-0.722627 0.0762,-0.228515 -0.10772,-0.507182 0,-0.72263 0.004,-0.0075 2.12736,-0.562229 2.5292,-0.361312 0.14151,0.07075 0,2.039715 0,2.167882 0,2.9712569 0.83262,7.7839118 -0.72263,10.1167878 -0.18896,0.283437 -0.53367,0.43919 -0.72263,0.722627 -0.35289,0.529339 -0.0812,1.607646 -0.36131,2.167885 -0.11005,0.220088 -2.13014,3.949287 -2.16789,3.974452 -0.20042,0.133614 -0.5222,-0.133615 -0.72262,0 -0.67849,0.452326 -1.57551,2.318297 -2.5292,2.890512 -0.32658,0.19595 -0.77925,0.132797 -1.08394,0.361312 -0.21545,0.161586 -0.13724,0.573244 -0.36132,0.722627 -0.25864,0.172432 -1.14062,0.132842 -1.44525,0.361315 -0.40878,0.306586 -0.67516,0.777357 -1.08394,1.083943 -0.7793,0.584472 -2.44978,0.442306 -3.25183,1.083939 -0.33909,0.271272 -0.38354,0.812673 -0.72262,1.083943 -0.68852,0.550809 -2.13674,0.460986 -2.5292,0.722627 -0.22408,0.149387 -0.17089,0.532199 -0.36132,0.722627 -0.34064,0.340652 -0.97788,-0.11684 -1.44525,0 -0.16524,0.04131 -0.20897,0.285145 -0.36132,0.361315 -0.25453,0.127265 -1.67,0.236845 -2.16788,0.361315 -0.46737,0.11684 -1.22981,-0.430892 -1.44525,0 -0.10773,0.215445 0.10772,0.50718 0,0.722628 -0.16159,0.323167 -0.72755,-0.0594 -1.08394,0 -0.48983,0.08164 -0.96351,0.240874 -1.44526,0.361312 z"
       id="path877"
       inkscape:export-filename="C:\Users\admin\Pictures\Logo\heifer.png"
       inkscape:export-xdpi="72.571426"
       inkscape:export-ydpi="72.571426" />
    <path
       style="fill:#ffffff;stroke:#000000;stroke-width:0.5;stroke-linecap:butt;stroke-linejoin:miter;stroke-miterlimit:4;stroke-dasharray:none;stroke-opacity:1"
       d="m 74.294713,13.686036 c -0.0537,0.02119 -1.01236,3.938664 -1.08394,3.974452 -0.47006,0.235032 -0.85133,-0.336516 -1.08394,0.361315 -0.0762,0.228515 0.0762,0.494112 0,0.722627 -0.83069,2.492076 0.10806,-1.769449 -0.72263,0.722627 -0.0762,0.228516 0.17033,0.552302 0,0.722628 -0.17032,0.170325 -0.50718,-0.107723 -0.72262,0 -0.10773,0.05386 0.0539,0.253592 0,0.361315 -0.36132,0.722627 -1.44526,1.083939 -1.80657,1.806569 -0.15183,0.303644 -0.15133,1.235268 -0.36132,1.445255 -0.0852,0.08516 -0.27615,-0.08516 -0.36131,0 -0.24088,0.240877 0.24087,1.204378 0,1.445255 -0.83252,0.832516 -5.08897,-1.099228 -5.78102,-1.445255 -0.98253,-0.49126 -4.10468,-2.461948 -4.69709,-3.251824 -0.32316,-0.430893 -0.30204,-1.108787 -0.72262,-1.445258 -0.54838,-0.438703 -1.14034,-0.861864 -1.80657,-1.083939 -0.22852,-0.07617 -0.5523,0.170325 -0.72263,0 -0.26931,-0.269309 -0.15005,-0.767049 -0.36131,-1.083943 -0.33659,-0.50488 -1.65354,-0.208285 -2.16789,-0.722627 -0.19043,-0.190429 -0.14586,-0.561044 -0.36131,-0.722627 -0.60937,-0.457031 -1.62927,-0.184013 -2.16788,-0.722628 -0.17033,-0.170325 0.13361,-0.522208 0,-0.72263 -0.38179,-0.572677 -2.59535,-1.653892 -3.25183,-2.529197 -0.47446,-0.632613 -0.68978,-1.8394169 -1.08394,-2.5291969 -0.69422,-1.214884 -1.54495,-2.0059649 -2.16788,-3.2518239 -0.81614,-1.632276 0.55075,-3.70786 1.80657,-4.335767 0.36131,-0.180655 0.72262,0.361315 1.08394,0 0.17032,-0.170323 -0.10773,-0.50718001 0,-0.72262701 0.4995,-0.999001 6.39178,0.01286 6.86496,0.72262701 1.72512,2.587675 5.31547,3.478334 7.94891,5.058394 0.25759,0.154557 2.10066,1.3108169 2.16788,1.4452579 0.74413,1.488254 -0.18981,0.808381 1.08394,1.445254 0.24088,0.120439 0.48175,0.240877 0.72263,0.361315 0.36131,0.3613129 0.64029,0.8304269 1.08394,1.0839399 2.41258,1.378617 0.49989,-0.315121 2.5292,0.361315 0.41196,0.137319 0.68481,0.551569 1.08394,0.722627 2.88451,1.236221 1.87873,-0.737163 5.05839,1.80657 z"
       id="path879"
       inkscape:export-filename="C:\Users\admin\Pictures\Logo\heifer.png"
       inkscape:export-xdpi="72.571426"
       inkscape:export-ydpi="72.571426" />
    <path
       style="fill:#a05a2c;stroke:none;stroke-width:0.264583px;stroke-linecap:butt;stroke-linejoin:miter;stroke-opacity:1"
       d="m 146.55749,53.069246 c 0.82726,0.101701 1.38743,4.942761 1.44525,5.058394 0.10773,0.215448 0.52221,-0.133612 0.72263,0 0.36131,0.240877 0.58531,0.671981 0.72263,1.083942 0.39637,1.189107 0.83242,3.000307 1.80657,3.974452 0.19043,0.190429 0.53219,0.170887 0.72263,0.361315 0.38626,0.386265 0.46579,1.394471 1.08394,1.806571 0.22407,0.14938 0.57324,0.13724 0.72262,0.36131 0.13362,0.20042 -0.10772,0.50718 0,0.72263 0.0539,0.10772 0.30746,-0.10772 0.36132,0 0.10772,0.21545 -0.0762,0.49411 0,0.72263 0.71118,2.13355 -0.37901,-2.22097 0.72263,1.08394 0.0762,0.22851 -0.21545,0.6149 0,0.72263 0.21544,0.10772 0.5523,-0.17033 0.72262,0 0.24088,0.24087 0.0723,0.89124 0.36132,1.08394 0.19465,0.12977 2.01777,0.2112 2.16788,0.36131 0.0852,0.0852 -0.10772,0.30745 0,0.36132 1.47872,0.73935 7.56189,-0.73548 9.03285,0 0.24087,0.12043 0.12043,0.60219 0.36131,0.72262 0.90151,0.45076 5.58149,0 6.86496,0 0.48176,0 1.10461,0.34065 1.44526,0 0.0852,-0.0852 -0.0852,-0.27615 0,-0.36131 0.36131,-0.36131 1.44526,0 1.80657,-0.36131 0.17032,-0.17033 -0.0762,-0.49412 0,-0.72263 0.23261,-0.69783 0.61388,-0.12629 1.08394,-0.36131 0.41833,-0.20917 0.11893,-1.0428 0.72263,-1.44526 0.12951,-0.0863 1.42093,-0.67398 1.44525,-0.72263 0.10773,-0.21544 -0.0762,-0.49411 0,-0.72263 0.16127,-0.48379 1.38284,-0.9591 1.44526,-1.08394 0.10772,-0.21544 -0.0762,-0.49411 0,-0.72263 0.18501,-0.555013 0.78883,-0.27996 1.08394,-0.722623 0.13361,-0.200422 -0.13361,-0.522209 0,-0.722628 0.14939,-0.224078 0.5322,-0.170886 0.72263,-0.361315 0.60688,-0.606883 1.69686,-2.058172 2.5292,-2.890509 0.19042,-0.190431 0.53219,-0.170887 0.72262,-0.361315 0.48176,-0.481751 -0.76646,-0.346702 0.36132,-0.722628 0.22851,-0.07617 0.5523,0.170326 0.72263,0 0.16031,-0.160311 0.71952,-3.069613 1.08394,-3.251824 0.21544,-0.107722 0.5523,0.170326 0.72262,0 0.51098,-0.149661 -0.25548,-0.828455 0,-1.083942 0.28238,-0.282379 1.08765,-0.24211 1.44526,-0.361313 0.55326,-0.184419 0.86597,-1.227283 1.08394,-1.445257 0.19043,-0.190428 0.56105,-0.145867 0.72263,-0.361312 0.67785,-0.903796 1.63532,-3.270639 2.16788,-4.335767 0.55502,-1.110036 0.2038,0.597596 1.08394,-0.722627 0.13362,-0.200422 -0.0762,-0.494115 0,-0.722628 0.0852,-0.255489 0.63747,-0.105828 0.72263,-0.361315 0.11426,-0.342773 -0.16158,-0.760772 0,-1.083942 0.12044,-0.240874 0.5322,-0.170884 0.72263,-0.361312 0.6191,-0.619104 0.66111,-1.894944 1.08394,-2.529197 0.2208,-0.331193 1.29728,-1.001327 1.44526,-1.445258 0.0762,-0.228515 -0.13362,-0.522205 0,-0.722627 0.14938,-0.224076 0.53219,-0.170884 0.72262,-0.361312 1.08604,-1.086036 1.01188,-6.431095 0,-7.948907 -0.33137,-0.497059 -0.5574,-0.371604 -1.08394,-0.722627 -1.06618,-0.710787 -0.42075,-0.933003 -2.16788,-1.80657 -1.40732,-0.703662 -6.90822,0.701001 -8.31022,0 -0.24088,-0.120438 -0.13038,-0.58407 -0.36131,-0.722627 -1.11889,-0.67133 -2.07994,-0.165999 -3.25183,-0.361315 -5.14539,-0.857565 -10.02984,0 -15.17518,0 -0.73696,0 -3.87614,-0.459626 -4.33577,0 -0.0852,0.08516 0.10773,0.307454 0,0.361315 -0.44415,0.222075 -0.98419,0.17689 -1.44525,0.361312 -0.56284,0.225137 -1.27982,0.820569 -1.80657,1.083943 -0.81517,0.407582 -1.38597,1.415613 -2.16789,1.806569 -0.34065,0.170326 -0.81463,0.09201 -1.08394,0.361315 -0.2693,0.269307 -0.12339,0.786541 -0.36131,1.08394 -0.27127,0.33909 -0.77688,0.415571 -1.08394,0.722628 -0.91804,0.918038 -1.59974,1.961051 -2.5292,2.890512 -1.36333,1.363334 -3.29217,1.260742 -3.97445,1.806569 -0.2974,0.237921 -0.0566,0.855427 -0.36131,1.083943 -1.92701,1.445254 -0.48176,-0.481754 -1.44526,0 -0.30469,0.152341 -0.39946,0.614904 -0.72263,0.722627 -0.74357,0.247856 -1.72634,0.361312 -2.5292,0.361312 -0.29478,0 -1.73697,-0.139194 -1.80657,0 -0.21171,0.423437 0.31463,9.300779 0.36132,9.394161 0.41186,0.82373 0.45797,1.470557 0.72263,2.529197 z"
       id="path881"
       inkscape:export-filename="C:\Users\admin\Pictures\Logo\heifer.png"
       inkscape:export-xdpi="72.571426"
       inkscape:export-ydpi="72.571426" />
    <path
       style="fill:#a05a2c;stroke:none;stroke-width:0.264583px;stroke-linecap:butt;stroke-linejoin:miter;stroke-opacity:1"
       d="m 66.707123,29.22253 c 0.30901,2.285752 -0.56709,3.405765 -1.80657,5.058395 -0.77607,1.034772 1.1827,-0.435383 -0.36131,0.72263 -0.3474,0.260545 -0.80595,0.38903 -1.08394,0.722627 -0.24088,0.481751 -0.48175,0.963504 -0.72263,1.445255 0,0.120438 0.0539,0.253589 0,0.361315 -0.8563,1.712592 -2.27449,2.902336 -2.89051,5.058394 -0.17526,0.613391 -0.35344,2.275202 -0.72263,2.890509 -0.17526,0.292105 -0.57028,0.417941 -0.72263,0.722627 -0.47244,0.944878 -0.1899,1.641317 -0.72263,2.529197 -0.17526,0.292106 -0.54736,0.430525 -0.72262,0.72263 -0.56039,0.933977 -0.66024,2.263177 -1.08394,3.251825 0.20031,0.894844 -0.81464,0.906639 -1.08394,1.445254 -0.49905,0.998088 -0.65467,2.461231 -1.44526,3.251825 -0.27736,0.277357 -1.13745,0.207409 -1.44526,0.361315 -0.34065,0.170323 -0.092,0.814633 -0.36131,1.083939 -0.0852,0.08517 -0.27615,-0.08516 -0.36131,0 -0.48175,0.481754 0.76646,0.346703 -0.36132,0.72263 -0.22851,0.07617 -0.5523,-0.170325 -0.72263,0 -0.17032,0.170323 0.10773,0.50718 0,0.722628 -0.11158,0.223165 -1.89419,0.09843 -2.16788,-0.722628 -0.3263,-0.978902 -0.28716,-4.29869 -0.36131,-4.335766 -0.83825,-0.419124 -5.91226,0.426929 -6.50365,0.722627 -0.10772,0.05386 0,0.240877 0,0.361312 -0.36132,0.240877 -0.66641,0.603332 -1.08394,0.72263 -1.96321,0.560914 -6.8203,0.01786 -8.67154,-0.72263 -0.54565,-0.218257 -1.26092,-0.865682 -1.80656,-1.083939 -0.46107,-0.184425 -1.01945,-0.105828 -1.44526,-0.361315 -0.23093,-0.138557 -0.12044,-0.602189 -0.36131,-0.722628 -2.8701,-1.435047 1.09895,2.300828 -2.5292,-0.722627 -0.3336,-0.277998 -0.37523,-0.823394 -0.72263,-1.083942 -0.13282,-0.09962 -2.09462,-0.649362 -2.16788,-0.722628 -0.26931,-0.269308 -0.15005,-0.767048 -0.36132,-1.083942 -0.0668,-0.100211 -0.27615,0.08516 -0.36131,0 -0.42581,-0.425812 -0.65813,-1.019442 -1.08394,-1.445255 -0.57129,-0.571288 -1.5966,-0.512654 -2.16789,-1.083942 -0.2693,-0.269306 -0.15005,-0.767048 -0.36131,-1.08394 -0.20073,-0.301096 -1.47202,-1.405109 -1.80657,-1.806569 -1.39916,-0.331656 -0.83867,-1.770973 -1.44525,-2.529197 -0.27127,-0.33909 -0.80595,-0.389033 -1.08395,-0.72263 -1.08082,-1.296985 -1.75048,-3.005736 -2.89051,-4.335764 -1.5301802,-1.785216 -2.9346902,-3.340193 -3.9744502,-5.41971 -0.38592,-0.771837 -1.4912402,-1.379569 -1.8065702,-2.167882 -0.18442,-0.461062 -0.13923,-1.001103 -0.36131,-1.445257 -0.4837,-0.967399 -1.60089,-1.898261 -2.16788,-2.890509 -0.7439,-1.301816 -0.466,-2.015929 -1.08395,-3.251825 C 0.99524855,21.729441 0.44744855,21.217228 0.22536855,20.551 c -0.53987,-1.619602 0.0228,-7.644487 0.72263,-9.394161 0.20407405,-0.510183 1.15352405,-0.57676 1.44526405,-0.722627 0.53861,-0.269309 0.92888,-0.7741179 1.44525,-1.0839429 0.55615,-0.33369 1.25042,-0.388937 1.80657,-0.722627 0.2921,-0.175263 0.40634,-0.596114 0.7226302,-0.722627 1.51535,-0.60614 3.8083902,0.322262 5.4197102,0 0.16701,-0.0334 0.1933,-0.333315 0.36131,-0.361315 3.06758,-0.511263 6.63304,0 9.75547,0 1.65427,0 3.40669,0.137641 5.0584,0 2.87505,-0.239589 6.65144,-1.0100469 9.39416,0.361315 0.84452,0.422261 4.39007,4.1227499 5.05839,5.0583939 0.62972,0.881607 0.7114,1.973185 1.44526,2.890509 0.60894,0.761182 1.60053,1.498999 1.80657,2.529197 0.29739,1.486948 0.64698,2.577478 1.44525,3.974454 0.85853,1.502421 2.07637,2.076368 3.25183,3.251825 0.54177,0.541768 3.73841,5.220589 4.33576,5.419706 0.83028,0.27676 1.71429,0.03535 2.5292,0.361315 0.31629,0.126513 0.40634,0.596114 0.72263,0.722627 0.44876,0.179507 5.08425,-0.137673 5.41971,-0.361315 0.22407,-0.149383 0.17088,-0.532196 0.36131,-0.722627 0.29523,-0.295233 1.87265,-0.06608 2.16788,-0.361312 1.80657,-1.80657 -2.28832,0.602189 1.80657,-1.445258 z"
       id="path996"
       inkscape:export-filename="C:\Users\admin\Pictures\Logo\heifer.png"
       inkscape:export-xdpi="72.571426"
       inkscape:export-ydpi="72.571426" />
    <path
       style="fill:#a05a2c;stroke:none;stroke-width:0.264583px;stroke-linecap:butt;stroke-linejoin:miter;stroke-opacity:1"
       d="m 56.229023,90.64589 c -0.48175,-0.36132 -1.17595,-0.54533 -1.44525,-1.08394 -0.8333,-1.66659 0.29849,-15.15957 0.72262,-17.70438 0.16327,-0.97958 0.1255,-2.30856 0.36132,-3.25183 0.2911,-1.16443 0.88837,-2.07839 1.08394,-3.25182 0.50684,-3.04108 0,-6.6658 0,-9.755477 0,-1.863362 -0.47498,-8.330536 0,-9.755473 0.18057,-0.541721 0.76121,-0.961157 1.08394,-1.445257 0.41146,-0.617197 0.40002,-1.350619 1.08394,-1.806567 1.07035,-0.713566 3.54417,0.576455 4.69708,0 0.10772,-0.05386 -0.11426,-0.323229 0,-0.361315 0.5826,-0.194202 1.20438,-0.240877 1.80657,-0.361315 0.3543,-0.07086 0.76077,0.161586 1.08394,0 0.24088,-0.120436 0.17089,-0.532197 0.36132,-0.722628 0.23259,-0.232595 2.6043,-0.865732 2.89051,-0.722627 0.65682,0.328414 0.47553,1.312373 0.72263,1.80657 0.15234,0.304686 0.53366,0.439189 0.72262,0.722627 0.52494,0.787405 0.22296,2.419035 0.72263,3.251824 0.13856,0.230931 0.5322,0.170887 0.72263,0.361315 0.42801,0.428006 0.71836,1.319136 1.08394,1.80657 0.44614,0.594855 1.09652,0.735203 1.44525,1.083942 0.30706,0.307057 0.37524,0.823394 0.72263,1.08394 0.62828,0.47121 2.21573,-0.07426 2.5292,1.80657 0.43198,2.591914 -0.17023,6.906672 0.36131,9.032846 0.1573,0.629213 0.56532,1.177356 0.72263,1.806569 0.27986,1.119447 -0.18951,2.476126 0,3.613136 0.0443,0.26565 0.33157,0.45497 0.36131,0.72263 0.28829,2.59457 -0.99363,5.41965 -0.36131,7.94891 0.14894,0.59578 0.16711,1.22396 0.36131,1.80657 0.0381,0.11425 0.30745,-0.10773 0.36131,0 0.207,0.41399 0.56532,6.76296 0.36132,6.86496 -0.84307,0.42153 -0.72263,-0.45164 -0.72263,0.36131 -0.12044,0.24088 -0.17089,0.5322 -0.36131,0.72263 -0.39016,0.39016 -5.31676,0.55751 -6.14234,0.72263 -1.13835,0.22767 -2.95367,-0.51039 -3.97445,0 -0.62627,0.31314 -0.10119,1.31519 -0.36131,1.44525 -0.21545,0.10773 -0.50718,-0.10772 -0.72263,0 -0.0806,0.0403 -0.54033,0.96241 -0.72263,1.08394 -0.75639,0.50427 -3.29793,0.37669 -4.33576,0.72263 -0.11426,0.0381 0.0852,0.27616 0,0.36132 -0.17033,0.17032 -0.49898,-0.0895 -0.72263,0 -0.50009,0.20003 -0.92737,0.57466 -1.44526,0.72262 -0.27048,0.0773 -4.70968,0.36132 -5.05839,0.36132 z"
       id="path1111"
       inkscape:export-filename="C:\Users\admin\Pictures\Logo\heifer.png"
       inkscape:export-xdpi="72.571426"
       inkscape:export-ydpi="72.571426" />
    <path
       style="fill:#a05a2c;stroke:none;stroke-width:0.264583px;stroke-linecap:butt;stroke-linejoin:miter;stroke-opacity:1"
       d="m 103.19982,156.0437 c 0.74995,1.67018 0.66597,3.38649 1.08395,5.05839 0.55158,2.20634 0,5.28721 0,7.58759 0,0.48176 0.34065,1.10461 0,1.44526 -0.19043,0.19043 -0.5322,0.17088 -0.72263,0.36131 -0.91504,0.91504 -0.49285,1.74097 -1.80657,2.5292 -0.20655,0.12393 -0.48894,-0.0584 -0.72263,0 -0.25449,0.0636 -3.605493,1.89116 -3.974453,2.16788 -1.676284,-0.30917 -0.41557,0.77689 -0.72263,1.08394 -0.136324,0.13633 -1.505844,0.26108 -1.806564,0.36132 -0.88656,0.29551 -1.00465,0.76317 -1.80657,1.08394 -0.55912,0.22365 -1.20438,0 -1.80657,0 -1.29201,0 -2.78346,0.23419 -3.97445,-0.36131 -0.47593,-0.23797 -0.96934,-0.84598 -1.44526,-1.08395 -0.58011,-0.29005 -1.25042,-0.38893 -1.80657,-0.72262 -0.32659,-0.19595 -0.19099,-0.7433 -0.36131,-1.08394 -0.36132,-0.72263 -0.86199,-1.39105 -1.08395,-2.16789 -0.61813,-2.16349 0.93719,0.0678 -0.36131,-2.5292 -0.0539,-0.10772 -0.27615,0.0852 -0.36131,0 -0.4035,-0.4035 -0.21484,-1.72846 -0.36132,-2.16788 -0.33389,-1.00167 -1.05822,-1.0325 -1.44525,-1.80657 -0.0539,-0.10772 0,-0.24087 0,-0.36131 -0.12044,-0.36131 -0.17236,-0.75327 -0.36132,-1.08394 -1.09611,-1.91821 -1.34678,-1.07309 -2.16788,-2.16789 -0.22851,-0.30468 -0.16536,-0.75736 -0.36131,-1.08394 -0.52579,-0.87631 -1.50281,-1.39196 -2.16788,-2.16788 -0.70028,-0.81699 -0.93432,-2.1241 -1.44526,-2.89051 -0.18896,-0.28344 -0.54736,-0.43053 -0.72263,-0.72263 -0.45548,-0.75914 -0.50448,-1.80487 -1.08394,-2.5292 -0.3192,-0.399 -0.77735,-0.67516 -1.08394,-1.08394 -0.0723,-0.0964 0,-0.24087 0,-0.36131 -0.24087,-0.48176 -0.38616,-1.02467 -0.72263,-1.44526 -0.16823,-0.21029 -0.48175,-0.24087 -0.72262,-0.36131 -0.48176,-0.60219 -1.03654,-1.15261 -1.44526,-1.80657 -0.20186,-0.32297 -0.092,-0.81464 -0.36131,-1.08394 -0.38086,-0.38086 -1.0644,-0.34177 -1.44526,-0.72263 -0.71077,-0.71077 -2.25915,-2.92219 -2.89051,-3.97445 -0.33369,-0.55615 -0.36286,-1.26692 -0.72263,-1.80657 -0.28344,-0.42516 -0.77735,-0.67516 -1.08394,-1.08394 -0.12755,-0.17008 0.0312,-0.8655 0,-1.08394 -0.1036,-0.72524 -0.18363,-1.45717 -0.36131,-2.16789 -0.92866,-3.71464 0.35913,-2.89051 3.61314,-2.89051 1.66413,0 3.99139,2.92441 4.69708,4.33577 0.10772,0.21544 -0.0895,0.49898 0,0.72263 0.64339,1.60847 2.29791,2.9049 3.25182,4.33576 0.35977,0.53965 0.36286,1.26692 0.72263,1.80657 0.28343,0.42516 0.77735,0.67516 1.08394,1.08394 0.46436,0.61915 0.95203,1.87157 1.44525,2.5292 0.0723,0.0964 0.27616,-0.0852 0.36132,0 0.38086,0.38086 0.34177,1.0644 0.72263,1.44525 1.42345,1.42346 2.36506,1.00188 3.97444,1.80657 0.10773,0.0539 -0.0723,0.26497 0,0.36132 0.30659,0.40878 0.64579,0.82104 1.08395,1.08394 0.20655,0.12393 0.49411,-0.0762 0.72262,0 0.97538,0.32513 2.5937,1.29684 3.61314,1.80657 0.69493,0.34746 1.45655,1.20814 2.16788,1.44525 0.22852,0.0762 0.50719,-0.10772 0.72263,0 0.10773,0.0539 -0.10772,0.30746 0,0.36132 0.21545,0.10772 0.52221,-0.13361 0.72263,0 0.22408,0.14938 0.13724,0.57324 0.36131,0.72263 0.70115,0.46743 6.832514,-0.32886 7.226284,-0.72263 0.17033,-0.17033 -0.10772,-0.50718 0,-0.72263 0.0539,-0.10772 0.27615,0.0852 0.36132,0 0.0784,-0.0784 0.29087,-0.68741 0.36131,-0.72263 0.65732,-0.32866 3.063143,0 3.613143,0 0.24087,0 0.53453,-0.15047 0.72263,0 0.47022,0.37619 0.72262,0.96351 1.08393,1.44526 z"
       id="path1113"
       inkscape:export-filename="C:\Users\admin\Pictures\Logo\heifer.png"
       inkscape:export-xdpi="72.571426"
       inkscape:export-ydpi="72.571426" />
    <path
       style="fill:#ffffff;stroke:#000000;stroke-width:0.264583px;stroke-linecap:butt;stroke-linejoin:miter;stroke-opacity:1"
       d="m 61.062433,54.862176 c 1.15275,-0.727302 2.33806,-0.63872 3.70457,-0.63872 0.17033,0 0.39054,-0.120438 0.51098,0 0.18616,0.186167 0.3506,0.438947 0.63872,0.510977 0.12392,0.03098 0.27369,-0.06573 0.38323,0 0.13165,0.07899 0.16337,0.260406 0.25548,0.38323 0.0921,0.122823 0.32622,0.11294 0.38324,0.255487 0.14662,0.366567 0.28621,3.995619 0.12774,4.471033 -0.0488,0.146457 -0.18998,0.700955 -0.25549,0.766461 -0.12412,0.124118 -0.50471,0.415366 -0.63872,0.63872 -0.0693,0.115464 -0.0325,0.288014 -0.12774,0.38323 -0.0426,0.04261 -0.78797,0.191744 -0.89421,0.255487 -0.0816,0.04899 -0.0604,0.188161 -0.12774,0.255487 -0.0416,0.04158 -1.05183,0.589785 -1.14969,0.63872 -0.52669,0.263345 -3.14355,0.668745 -3.83232,0.255487 -0.77795,-0.46677 0.33378,-0.0886 -0.25548,-0.383231 -0.70763,-0.353811 -0.19137,-0.04224 -0.63872,-0.63872 -0.0571,-0.07617 -0.18816,-0.06042 -0.25549,-0.127743 -0.16311,-0.163108 -0.21612,-4.117538 -0.12774,-4.47103 0.0335,-0.133802 0.19991,-0.655314 0.25548,-0.766463 0.11504,-0.230066 0.4438,-0.699278 0.63872,-0.894207 0.12415,-0.124143 0.3649,-0.03036 0.51098,-0.127744 0.0354,-0.02363 -0.0301,-0.09763 0,-0.127743 0.0913,-0.09127 0.53081,0.01614 0.63872,-0.127744 0.11425,-0.152344 0.17032,-0.340651 0.25548,-0.510974 z"
       id="path1378"
       inkscape:export-filename="C:\Users\admin\Pictures\Logo\heifer.png"
       inkscape:export-xdpi="72.571426"
       inkscape:export-ydpi="72.571426" />
    <path
       style="fill:#000000;stroke:#000000;stroke-width:0.264583px;stroke-linecap:butt;stroke-linejoin:miter;stroke-opacity:1"
       d="m 64.990883,54.424175 c 0.7424,0.299849 1.04703,0.681815 1.17427,1.445254 0.0247,0.1485 -0.0673,0.31699 0,0.451641 0.0917,0.18332 0.0263,0.349798 0.0903,0.541973 0.0426,0.127743 0.13065,0.236291 0.18066,0.361312 0.22793,0.569841 -0.444,1.58767 -0.54198,2.077556 -0.0177,0.08858 0.0404,0.190193 0,0.270986 -0.0485,0.0971 -0.22243,0.08356 -0.27098,0.180655 -0.0602,0.120439 -0.148,0.230683 -0.18066,0.361315 -0.0219,0.08763 0.0542,0.198724 0,0.270987 -0.0315,0.04207 -0.3288,0.0506 -0.36131,0.180654 -0.0219,0.08763 0.0542,0.198724 0,0.270987 -0.0571,0.07617 -0.18582,0.04775 -0.27099,0.09033 -0.3157,0.157853 0.16819,0.01246 -0.0903,0.270987 -0.0673,0.06733 -0.18583,0.04775 -0.27099,0.09033 -0.13465,0.06733 -0.16453,0.25486 -0.27098,0.361313 -0.0721,0.07213 -0.53206,0.170741 -0.54198,0.180657 -0.0426,0.04258 0.0426,0.138076 0,0.180658 -0.0323,0.03234 -0.40562,-0.01151 -0.45164,0 -0.2498,0.06245 -0.63038,0.181295 -0.90328,0.09033 -0.0286,-0.0095 0.0241,-0.07226 0,-0.09033 -0.68614,-0.514607 -0.14927,0.153114 -0.45165,-0.451644 -0.0762,-0.152342 -0.25491,-0.228312 -0.36131,-0.361312 -0.21726,-0.271577 -0.18066,-1.356508 -0.18066,-1.716241 0,-0.60166 0.0456,-1.423771 0.27099,-1.987227 0.0559,-0.13978 0.21168,-0.222938 0.27098,-0.361315 0.0356,-0.08302 -0.0219,-0.183354 0,-0.270984 0.0531,-0.212352 0.30264,-0.458454 0.45165,-0.632299 0.47512,-0.554304 0.51324,-0.753427 1.17427,-1.083942 0.0971,-0.04855 0.1666,-0.150834 0.27098,-0.180657 0.21978,-0.06279 0.68537,0.07452 0.72263,0 0.0269,-0.05386 -0.0269,-0.126797 0,-0.180658 0.0135,-0.02693 0.069,0.0213 0.0903,0 0.0213,-0.0213 0,-0.06022 0,-0.09033 0.15055,-0.09033 0.30109,-0.180655 0.45164,-0.270983 z"
       id="path1577"
       inkscape:export-filename="C:\Users\admin\Pictures\Logo\heifer.png"
       inkscape:export-xdpi="72.571426"
       inkscape:export-ydpi="72.571426" />
    <path
       style="fill:#ffffff;stroke:#000000;stroke-width:0.264583px;stroke-linecap:butt;stroke-linejoin:miter;stroke-opacity:1"
       d="m 132.40668,62.065459 c 1.15275,-0.727302 2.33806,-0.63872 3.70457,-0.63872 0.17033,0 0.39054,-0.120438 0.51098,0 0.18616,0.186167 0.3506,0.438947 0.63872,0.510977 0.12392,0.03098 0.27369,-0.06573 0.38323,0 0.13165,0.07899 0.16337,0.260406 0.25548,0.38323 0.0921,0.122823 0.32622,0.11294 0.38324,0.255487 0.14662,0.366565 0.28621,3.995617 0.12774,4.471037 -0.0488,0.14646 -0.18998,0.70095 -0.25549,0.76646 -0.12412,0.12412 -0.50471,0.41537 -0.63872,0.63872 -0.0693,0.11546 -0.0325,0.28801 -0.12774,0.38323 -0.0426,0.0426 -0.78797,0.19174 -0.89421,0.25549 -0.0816,0.049 -0.0604,0.18816 -0.12774,0.25548 -0.0416,0.0416 -1.05183,0.58979 -1.14969,0.63872 -0.52669,0.26335 -3.14355,0.66875 -3.83232,0.25549 -0.77795,-0.46677 0.33378,-0.0886 -0.25548,-0.38323 -0.70763,-0.35381 -0.19137,-0.0422 -0.63872,-0.63872 -0.0571,-0.0762 -0.18816,-0.0604 -0.25549,-0.12774 -0.16311,-0.16311 -0.21612,-4.11754 -0.12774,-4.47103 0.0335,-0.133812 0.19991,-0.655322 0.25548,-0.766472 0.11504,-0.23006 0.4438,-0.69927 0.63872,-0.8942 0.12415,-0.124147 0.3649,-0.0304 0.51098,-0.127748 0.0354,-0.02363 -0.0301,-0.09763 0,-0.127743 0.0913,-0.09127 0.53081,0.01614 0.63872,-0.127744 0.11425,-0.152344 0.17032,-0.340651 0.25548,-0.510974 z"
       id="path1378-8"
       inkscape:export-filename="C:\Users\admin\Pictures\Logo\heifer.png"
       inkscape:export-xdpi="72.571426"
       inkscape:export-ydpi="72.571426" />
    <path
       style="fill:#000000;stroke:#000000;stroke-width:0.264583px;stroke-linecap:butt;stroke-linejoin:miter;stroke-opacity:1"
       d="m 136.33513,61.627458 c 0.7424,0.299849 1.04703,0.681815 1.17427,1.44525 0.0247,0.1485 -0.0673,0.31699 0,0.45165 0.0917,0.18332 0.0263,0.34979 0.0903,0.54197 0.0426,0.12774 0.13065,0.23629 0.18066,0.36131 0.22793,0.569842 -0.444,1.587672 -0.54198,2.077562 -0.0177,0.0886 0.0404,0.19019 0,0.27098 -0.0485,0.0971 -0.22243,0.0836 -0.27098,0.18066 -0.0602,0.12044 -0.148,0.23068 -0.18066,0.36131 -0.0219,0.0876 0.0542,0.19873 0,0.27099 -0.0315,0.0421 -0.3288,0.0506 -0.36131,0.18065 -0.0219,0.0876 0.0542,0.19873 0,0.27099 -0.0571,0.0762 -0.18582,0.0478 -0.27099,0.0903 -0.3157,0.15785 0.16819,0.0125 -0.0903,0.27099 -0.0673,0.0673 -0.18583,0.0477 -0.27099,0.0903 -0.13465,0.0673 -0.16453,0.25486 -0.27098,0.36131 -0.0721,0.0721 -0.53206,0.17074 -0.54198,0.18066 -0.0426,0.0426 0.0426,0.13807 0,0.18066 -0.0323,0.0323 -0.40562,-0.0115 -0.45164,0 -0.2498,0.0624 -0.63038,0.18129 -0.90328,0.0903 -0.0286,-0.01 0.0241,-0.0723 0,-0.0903 -0.68614,-0.51461 -0.14927,0.15311 -0.45165,-0.45165 -0.0762,-0.15234 -0.25491,-0.22831 -0.36131,-0.36131 -0.21726,-0.27158 -0.18066,-1.35651 -0.18066,-1.71624 0,-0.60166 0.0456,-1.42377 0.27099,-1.98723 0.0559,-0.13978 0.21168,-0.222942 0.27098,-0.361312 0.0356,-0.083 -0.0219,-0.18336 0,-0.27099 0.0531,-0.21235 0.30264,-0.45845 0.45165,-0.6323 0.47512,-0.554301 0.51324,-0.753424 1.17427,-1.083939 0.0971,-0.04855 0.1666,-0.150834 0.27098,-0.180657 0.21978,-0.06279 0.68537,0.07452 0.72263,0 0.0269,-0.05386 -0.0269,-0.126797 0,-0.180658 0.0135,-0.02693 0.069,0.0213 0.0903,0 0.0213,-0.0213 0,-0.06022 0,-0.09033 0.15055,-0.09033 0.30109,-0.180655 0.45164,-0.270983 z"
       id="path1577-5"
       inkscape:export-filename="C:\Users\admin\Pictures\Logo\heifer.png"
       inkscape:export-xdpi="72.571426"
       inkscape:export-ydpi="72.571426" />
    <text
       xml:space="preserve"
       style="font-style:normal;font-weight:normal;font-size:88.1944px;line-height:1.25;font-family:sans-serif;letter-spacing:2.64583px;fill:#000000;fill-opacity:1;stroke:none;stroke-width:0.264583"
       x="227.01837"
       y="102.19499"
       id="text3933"
       inkscape:export-filename="C:\Users\admin\Pictures\Logo\heifer.png"
       inkscape:export-xdpi="72.571426"
       inkscape:export-ydpi="72.571426"><tspan
         sodipodi:role="line"
         id="tspan3931"
         style="font-style:normal;font-variant:normal;font-weight:normal;font-stretch:normal;font-size:88.1944px;font-family:'Bauhaus 93';-inkscape-font-specification:'Bauhaus 93, ';stroke-width:0.264583"
         x="227.01837"
         y="102.19499">Heif<tspan
   style="fill:#a05a2c;fill-opacity:1"
   id="tspan19643">ER</tspan></tspan></text>
    <text
       xml:space="preserve"
       style="font-style:normal;font-weight:normal;font-size:25.4px;line-height:1.25;font-family:sans-serif;letter-spacing:1.05833px;fill:#000000;fill-opacity:1;stroke:none;stroke-width:0.264583"
       x="229.90897"
       y="139.1472"
       id="text33245"
       inkscape:export-filename="C:\Users\admin\Pictures\Logo\heifer.png"
       inkscape:export-xdpi="72.571426"
       inkscape:export-ydpi="72.571426"><tspan
         sodipodi:role="line"
         id="tspan33243"
         style="font-style:normal;font-variant:normal;font-weight:normal;font-stretch:normal;font-size:25.4px;font-family:'Bauhaus 93';-inkscape-font-specification:'Bauhaus 93, ';stroke-width:0.264583"
         x="229.90897"
         y="139.1472"><tspan
   style="fill:#a05a2c;fill-opacity:1"
   id="tspan51649">pipeline</tspan> infrastucture</tspan></text>
  </g>
  <metadata
     id="metadata52787">
    <rdf:RDF>
      <cc:Work
         rdf:about="">
        <dc:title>HeifER</dc:title>
      </cc:Work>
    </rdf:RDF>
  </metadata>
</svg>
